<svg width="19" height="20" viewBox="0 0 19 20" fill="none" xmlns="http://www.w3.org/2000/svg">
<path d="M17.1932 2.41977H15.6729V1.38209C15.6729 0.618791 15.0542 0 14.2908 0H14.2356C13.4723 0 12.8535 0.618791 12.8535 1.38209V2.41977H5.72187V1.38209C5.72187 0.618791 5.10308 0 4.33977 0H4.28449C3.52119 0 2.9024 0.618791 2.9024 1.38209V2.41977H1.38209C0.618791 2.41977 0 3.03856 0 3.80186V18.6179C0 19.3813 0.618791 20 1.38209 20H17.1932C17.9565 20 18.5753 19.3813 18.5753 18.6179V3.80186C18.5753 3.03856 17.9565 2.41977 17.1932 2.41977ZM16.2534 17.8163H2.32192V6.59369H16.2534V17.8163Z" fill="#FFDF39"/>
</svg>
