<svg width="20" height="20" viewBox="0 0 20 20" fill="none" xmlns="http://www.w3.org/2000/svg">
<path d="M4.6738 4.0552L12.6468 1.8789L12.2246 1.02544C11.9484 0.470698 11.2746 0.241614 10.7198 0.517863L3.58228 4.0552H4.6738Z" fill="#FFDF39"/>
<path d="M15.1219 1.94177C15.0231 1.94177 14.9242 1.95525 14.8254 1.9822L12.9523 2.49427L7.23193 4.05518H13.7249H16.5548L16.2044 2.77052C16.0697 2.26968 15.616 1.94177 15.1219 1.94177Z" fill="#FFDF39"/>
<path d="M17.7249 4.84131H17.4688H17.1207H16.7726H14.1157H4.35261H3.07243H1.99439H1.7945H1.12521C0.770354 4.84131 0.453678 5.00526 0.247052 5.26354C0.152723 5.38258 0.0808535 5.51958 0.0404267 5.67006C0.0157215 5.76439 0 5.86321 0 5.96427V6.09903V7.37921V18.4763C0 19.0962 0.503088 19.5993 1.12296 19.5993H17.7226C18.3425 19.5993 18.8456 19.0962 18.8456 18.4763V15.3433H12.1819C11.1286 15.3433 10.2729 14.4876 10.2729 13.4342V12.4056V12.0575V11.7094V10.9368C10.2729 10.4202 10.4795 9.95082 10.8141 9.60719C11.1106 9.30172 11.5081 9.0951 11.9528 9.04344C12.027 9.03448 12.1033 9.02997 12.1797 9.02997H17.9113H18.2594H18.6075H18.8456V5.96427C18.8478 5.3444 18.3448 4.84131 17.7249 4.84131Z" fill="#FFDF39"/>
<path d="M19.6339 10.1035C19.5216 10.0002 19.3891 9.9216 19.2409 9.86994C19.1263 9.83179 19.0051 9.80933 18.8771 9.80933H18.8479H18.8254H18.4773H17.2218H12.1819C11.562 9.80933 11.059 10.3124 11.059 10.9323V11.4915V11.8396V12.1877V13.432C11.059 14.0519 11.562 14.555 12.1819 14.555H18.8479H18.8771C19.0051 14.555 19.1264 14.5325 19.2409 14.4943C19.3891 14.4449 19.5216 14.364 19.6339 14.2607C19.8585 14.0564 20 13.7599 20 13.432V10.9323C20 10.6044 19.8585 10.3079 19.6339 10.1035ZM14.5267 12.4056C14.5267 12.7155 14.2751 12.9671 13.9652 12.9671H13.5924C13.2824 12.9671 13.0309 12.7155 13.0309 12.4056V12.0328C13.0309 11.8531 13.114 11.6936 13.2465 11.5925C13.3431 11.5184 13.4621 11.4713 13.5924 11.4713H13.6867H13.9652C14.2751 11.4713 14.5267 11.7228 14.5267 12.0328V12.4056Z" fill="#FFDF39"/>
</svg>
