<svg width="19" height="20" viewBox="0 0 19 20" fill="none" xmlns="http://www.w3.org/2000/svg">
<path d="M17.1932 2.41977H15.6729V1.38209C15.6729 0.618791 15.0542 0 14.2908 0H14.2356C13.4723 0 12.8535 0.618791 12.8535 1.38209V2.41977H5.72187V1.38209C5.72187 0.618791 5.10308 0 4.33977 0H4.28449C3.52119 0 2.9024 0.618791 2.9024 1.38209V2.41977H1.38209C0.618791 2.41977 0 3.03856 0 3.80186V18.6179C0 19.3813 0.618791 20 1.38209 20H17.1932C17.9565 20 18.5753 19.3813 18.5753 18.6179V3.80186C18.5753 3.03856 17.9565 2.41977 17.1932 2.41977ZM16.2534 17.8163H2.32192V6.59369H16.2534V17.8163Z" fill="#FFDF39"/>
<path d="M4.21552 11.6723H6.62025C6.74237 11.6723 6.84139 11.5733 6.84139 11.4512V9.04645C6.84139 8.92433 6.74237 8.82532 6.62025 8.82532H4.21552C4.0934 8.82532 3.99438 8.92433 3.99438 9.04645V11.4512C3.99438 11.5733 4.0934 11.6723 4.21552 11.6723Z" fill="#FFDF39"/>
<path d="M8.08539 11.6723H10.4901C10.6122 11.6723 10.7113 11.5733 10.7113 11.4512V9.04645C10.7113 8.92433 10.6122 8.82532 10.4901 8.82532H8.08539C7.96327 8.82532 7.86426 8.92433 7.86426 9.04645V11.4512C7.86426 11.5733 7.96327 11.6723 8.08539 11.6723Z" fill="#FFDF39"/>
<path d="M11.9551 11.6723H14.3599C14.482 11.6723 14.581 11.5733 14.581 11.4512V9.04645C14.581 8.92433 14.482 8.82532 14.3599 8.82532H11.9551C11.833 8.82532 11.734 8.92433 11.734 9.04645V11.4512C11.734 11.5733 11.833 11.6723 11.9551 11.6723Z" fill="#FFDF39"/>
<path d="M4.21552 15.5422H6.62025C6.74237 15.5422 6.84139 15.4432 6.84139 15.321V12.9163C6.84139 12.7942 6.74237 12.6952 6.62025 12.6952H4.21552C4.0934 12.6952 3.99438 12.7942 3.99438 12.9163V15.321C3.99438 15.4432 4.0934 15.5422 4.21552 15.5422Z" fill="#FFDF39"/>
<path d="M8.08539 15.5422H10.4901C10.6122 15.5422 10.7113 15.4432 10.7113 15.321V12.9163C10.7113 12.7942 10.6122 12.6952 10.4901 12.6952H8.08539C7.96327 12.6952 7.86426 12.7942 7.86426 12.9163V15.321C7.86426 15.4432 7.96327 15.5422 8.08539 15.5422Z" fill="#FFDF39"/>
<path d="M11.9551 15.5422H14.3599C14.482 15.5422 14.581 15.4432 14.581 15.321V12.9163C14.581 12.7942 14.482 12.6952 14.3599 12.6952H11.9551C11.833 12.6952 11.734 12.7942 11.734 12.9163V15.321C11.734 15.4432 11.833 15.5422 11.9551 15.5422Z" fill="#FFDF39"/>
</svg>
